<?xml version="1.0" encoding="utf-8"?>
<!-- Generator: Adobe Illustrator 21.0.2, SVG Export Plug-In . SVG Version: 6.00 Build 0)  -->
<svg version="1.1" id="Layer_1" xmlns="http://www.w3.org/2000/svg" xmlns:xlink="http://www.w3.org/1999/xlink" x="0px" y="0px"
	 viewBox="0 0 964.8 779.1" style="enable-background:new 0 0 964.8 779.1;" xml:space="preserve">
<style type="text/css">
	.st0{fill:#273F29;}
</style>
<path class="st0" d="M887.1,460.7c0.6-2.8,0.8-5.6,0.8-8.5V180.8c0-24-19.4-43.4-43.4-43.4h-11c-24,0-43.4,19.4-43.4,43.4v215.8
	l-91.2,122.1h-69.1l72.6-97.3c14.3-19.2,10.4-46.4-8.8-60.8l-11.5-8.6c-19.2-14.3-46.4-10.4-60.8,8.8l-98.4,131.8
	c-5.8,7.8-8.6,16.9-8.6,26l0,0V722h169.1c6.5,0,12.7-1.5,18.3-4.1c9.2-2.3,17.7-7.7,23.8-15.9l154.1-206.3
	C887.3,485.2,889.6,472.5,887.1,460.7z"/>
<path class="st0" d="M75.6,460.7c-0.6-2.8-0.8-5.6-0.8-8.5V180.8c0-24,19.4-43.4,43.4-43.4h11c24,0,43.4,19.4,43.4,43.4v215.8
	l91.2,122.1h69.1l-72.6-97.3c-14.3-19.2-10.4-46.4,8.8-60.8l11.5-8.6c19.2-14.3,46.4-10.4,60.8,8.8l98.4,131.8
	c5.8,7.8,8.6,16.9,8.6,26l0,0V722H279.3c-6.5,0-12.7-1.5-18.3-4.1c-9.2-2.3-17.7-7.7-23.8-15.9L83.1,495.6
	C75.3,485.2,73,472.5,75.6,460.7z"/>
<path class="st0" d="M638.8,92.8l-2.1-2.1c-39.8-39.8-104.4-39.8-144.2,0l-12.8,12.8l-9.4-9.4c-39.8-39.8-104.4-39.8-144.2,0
	l-2.1,2.1c-40.1,40.1-40.1,105.1,0,145.2l156.3,156.3L627,250.8l-0.5-0.5l12.3-12.3C678.9,197.9,678.9,132.9,638.8,92.8z"/>
</svg>
