<?xml version="1.0" encoding="utf-8"?>
<!-- Generator: Adobe Illustrator 21.0.2, SVG Export Plug-In . SVG Version: 6.00 Build 0)  -->
<svg version="1.1" id="Layer_1" xmlns="http://www.w3.org/2000/svg" xmlns:xlink="http://www.w3.org/1999/xlink" x="0px" y="0px"
	 viewBox="0 0 1000 1000" style="enable-background:new 0 0 1000 1000;" xml:space="preserve">
<style type="text/css">
	.st0{fill:#091327;stroke:#FFFFFF;stroke-width:3;stroke-miterlimit:10;}
</style>
<path class="st0" d="M940.3,673.6c-51.7,61.9-126.1,110.4-215,133.9c-61.5,16.3-122.9,18.6-180,9.2c0.3-0.3,0.5-0.6,0.8-0.9
	c-69.1-17.5-119.9-74.9-119.9-143.2c0-22.2,5.4-43.3,15-62.2c20.6-20.1,47.6-42.6,83.3-63.3c11.4-6.6,45.8-25.8,92.6-35.6
	c21.5-4.5,36.9-5.2,52.9-1.3c18.9,4.6,31.9,14.1,39.7,19.8c9.8,7.1,21.9,16,29.4,30.3c13.4,25.7,1.7,50,7.3,51.4
	c6.6,1.7,22.8-31.9,26.4-39.5c6-12.5,11-22.9,14.7-38.2c6.4-26.7,3.7-47.5,2.9-52.7c-2.5-17.1-7.7-29.1-8.8-31.6
	c-1.3-2.9-6.2-13.5-16.2-26.4c-15-19.2-22-18.4-30.9-31.6c-2.6-3.9-4.2-7.3-5.3-10.5c-5.1-15-6.3-27.6-6.4-30.4
	c-1.3-25.2-34.1-59.6-36.4-61.9c-40.9-42.3-117.7-32.6-178.1-25c-50.6,6.4-91.8,20.1-121.9,32.9c-22.1,9.4-41.7,19.8-58.8,30.2
	c51.8-71,132.2-127.4,230.1-153.3c90.1-23.8,179.9-17.9,256.1,11.3c-23.2-19.1-48.3-35.8-75-50c80.3,9.1,153.4,38.8,212.4,83.1
	C861.7,88.3,711.8,3.1,541.9,3.1C267.4,3.1,44.8,225.6,44.8,500.2s222.6,497.1,497.1,497.1c168.1,0,316.6-83.4,406.6-211.1
	c-39.8,29.3-85.7,52-135.9,66.4C869.7,803.6,913.5,741.9,940.3,673.6z"/>
</svg>
