<?xml version="1.0" encoding="utf-8"?>
<!-- Generator: Adobe Illustrator 21.0.2, SVG Export Plug-In . SVG Version: 6.00 Build 0)  -->
<svg version="1.1" id="Layer_1" xmlns="http://www.w3.org/2000/svg" xmlns:xlink="http://www.w3.org/1999/xlink" x="0px" y="0px"
	 viewBox="0 0 913.4 1012.5" style="enable-background:new 0 0 913.4 1012.5;" xml:space="preserve">
<style type="text/css">
	.st0{fill:#FFFFFF;stroke:#FFFFFF;stroke-width:3;stroke-miterlimit:10;}
</style>
<path class="st0" d="M145.4,860.6c-50.2-14.4-96.1-37.1-135.9-66.4c90,127.7,238.5,211.1,406.6,211.1
	c274.5,0,497.1-222.5,497.1-497.1S690.6,11.1,416.1,11.1c-169.9,0-319.8,85.2-409.3,215c59-44.3,132.1-74,212.4-83.1
	c-26.7,14.2-51.8,30.9-75,50c76.2-29.2,166-35.1,256.1-11.3C498.2,207.6,578.6,264,630.4,335c-17.1-10.4-36.7-20.8-58.8-30.2
	c-30.1-12.8-71.3-26.5-121.9-32.9c-60.4-7.6-137.2-17.3-178.1,25c-2.3,2.3-35.1,36.7-36.4,61.9c-0.1,2.8-1.3,15.4-6.4,30.4
	c-1.1,3.2-2.7,6.6-5.3,10.5c-8.9,13.2-15.9,12.4-30.9,31.6c-10,12.9-14.9,23.5-16.2,26.4c-1.1,2.5-6.3,14.5-8.8,31.6
	c-0.8,5.2-3.5,26,2.9,52.7c3.7,15.3,8.7,25.7,14.7,38.2c3.6,7.6,19.8,41.2,26.4,39.5c5.6-1.4-6.1-25.7,7.3-51.4
	c7.5-14.3,19.6-23.2,29.4-30.3c7.8-5.7,20.8-15.2,39.7-19.8c16-3.9,31.4-3.2,52.9,1.3c46.8,9.8,81.2,29,92.6,35.6
	c35.7,20.7,62.7,43.2,83.3,63.3c9.6,18.9,15,40,15,62.2c0,68.3-50.8,125.7-119.9,143.2c0.3,0.3,0.5,0.6,0.8,0.9
	c-57.1,9.4-118.5,7.1-180-9.2c-88.9-23.5-163.3-72-215-133.9C44.5,749.9,88.3,811.6,145.4,860.6z"/>
</svg>
