<?xml version="1.0" encoding="utf-8"?>
<!-- Generator: Adobe Illustrator 21.0.2, SVG Export Plug-In . SVG Version: 6.00 Build 0)  -->
<!DOCTYPE svg PUBLIC "-//W3C//DTD SVG 1.1//EN" "http://www.w3.org/Graphics/SVG/1.1/DTD/svg11.dtd" [
	<!ENTITY st0 "opacity:0.1;">
	<!ENTITY st1 "fill:#757A2F;">
	<!ENTITY st2 "fill:#14253F;">
	<!ENTITY st3 "opacity:0.1;fill:#14253F;">
]>
<svg version="1.1" id="Layer_2" xmlns="http://www.w3.org/2000/svg" xmlns:xlink="http://www.w3.org/1999/xlink" x="0px" y="0px"
	 viewBox="0 0 1000 1015.9" style="enable-background:new 0 0 1000 1015.9;" xml:space="preserve">
<g style="&st0;">
	<path style="&st1;" d="M902.3,364.6c-8.8-12.2-18.1-24.1-27.9-35.5c-9.7-11.4-19.9-22.4-30.5-32.9c-10.6-10.5-21.6-20.6-33-30.1
		c-11.4-9.5-23.2-18.6-35.3-27c-12.1-8.5-24.5-16.4-37.2-23.8c-12.7-7.4-25.7-14.1-39-20.3c-6.6-3.2-13.3-6-20-8.9l-10.2-4
		c-3.4-1.4-6.8-2.5-10.2-3.8c-3.4-1.3-6.8-2.5-10.3-3.6l-10.4-3.4l-10.5-3.1l-5.2-1.5c-1.7-0.5-3.5-0.9-5.3-1.4l-10.6-2.6
		c-1.7-0.5-3.5-0.8-5.3-1.2l-5.3-1.1c-7.1-1.6-14.3-2.5-21.4-3.7c-1.8-0.3-3.6-0.5-5.4-0.7l-5.4-0.6c-3.6-0.4-7.2-0.9-10.8-1.1
		l-10.8-0.9c-3.6-0.2-7.2-0.4-10.8-0.6l-5.4-0.3l-5.4-0.2c-3.6-0.1-7.2-0.3-10.8-0.4c-3.6-0.1-7.2-0.1-10.8-0.2
		c-1.8-0.1-3.6-0.1-5.4-0.1c-1.8,0-3.6,0-5.4-0.1c-14.3-0.1-28.7-0.2-43.1,0.3c-28.8,0.7-57.8,3.1-87,6.9c-14.6,1.8-29.3,4.2-44,6.7
		c-14.8,2.5-29.6,5.5-44.8,8.3l-2.1-4.5c6.1-4.9,12.6-9.3,19.1-13.5c3.3-2.1,6.6-4.1,10-6.1c3.4-1.9,6.8-3.9,10.3-5.7
		c13.8-7.4,28.2-13.8,42.9-19.4c29.4-11.1,60.4-18.5,91.9-22.4c15.8-2,31.7-2.8,47.6-2.5c2,0,4,0.1,6,0.1c2,0,4,0.1,6,0.3
		c4,0.2,7.9,0.6,11.9,0.8c2,0.1,4,0.4,5.9,0.6l5.9,0.7l5.9,0.7l5.9,0.9c15.7,2.4,31.3,5.9,46.6,9.8c7.6,2.1,15.3,4.1,22.8,6.5
		c3.8,1.2,7.6,2.2,11.3,3.5l11.2,3.7c1.9,0.6,3.7,1.2,5.6,1.9l5.5,2.1l11.1,4.1l10.9,4.5c3.6,1.5,7.2,3.1,10.8,4.7
		c7.2,3.1,14.2,6.7,21.2,10.1c6.9,3.7,13.9,7.2,20.7,11.2c13.6,7.8,26.8,16.1,39.5,25.2c12.7,9,25,18.6,36.8,28.7
		c23.5,20.3,45.1,42.5,64.5,66.3c9.7,12,18.8,24.3,27.4,37c4.3,6.4,8.4,12.8,12.3,19.3c4,6.5,7.7,13.2,11.4,19.9L902.3,364.6z"/>
</g>
<g style="&st0;">
	<path style="&st1;" d="M767.5,290.8c-28.5-21.9-60.9-37.5-94.3-48.7l-6.3-2c-2.1-0.7-4.2-1.4-6.3-2l-12.7-3.6l-12.8-3.1l-3.2-0.8
		l-3.2-0.7l-6.5-1.3l-6.4-1.3c-2.1-0.5-4.3-0.7-6.5-1.1l-13-2.2l-13-1.7c-4.3-0.5-8.7-1.2-13-1.4c-4.4-0.3-8.7-0.7-13.1-1
		c-1.1-0.1-2.2-0.1-3.3-0.2l-3.3,0l-6.6-0.1l-6.6,0c-2.2,0-4.4,0-6.5,0.1l-13.1,0.4c-17.4,0.8-34.7,1-52.1,1.1
		c-17.4,0-35,0.1-52.8,0.3c-17.8,0.1-35.8,0.5-54.6-0.1l-1.1-3.8c3.9-2.7,8-5.1,12.2-7.4c2.1-1.1,4.2-2.2,6.3-3.3
		c2.1-1.1,4.2-2,6.4-3c4.3-2,8.6-3.7,13-5.5c2.2-0.9,4.4-1.7,6.6-2.4c2.2-0.8,4.4-1.6,6.7-2.3c17.8-5.9,36.2-9.8,54.8-12.3
		c4.7-0.5,9.3-1.1,14-1.5c4.7-0.3,9.4-0.5,14.1-0.6c1.2,0,2.3-0.1,3.5-0.1l3.5,0.1c2.3,0,4.7,0.2,7,0.3c4.7,0.2,9.4,0.4,14.1,1
		l14,1.7c2.3,0.3,4.6,0.7,7,1l6.9,1.1l6.9,1.1l3.5,0.6l3.4,0.7c4.6,0.9,9.2,1.7,13.8,2.6c4.6,0.7,9.2,1.8,13.7,2.9l13.6,3.1
		c4.5,1.2,9,2.5,13.5,3.7c2.2,0.6,4.5,1.2,6.7,1.9l6.7,2.1l6.6,2.2l3.3,1.1l3.3,1.2l13.1,4.9l12.8,5.5c2.1,0.9,4.2,1.9,6.3,2.9
		l6.3,3c16.7,8.2,32.8,17.5,47.9,28.1c7.5,5.4,14.9,11,21.8,17c6.9,6,13.6,12.4,19.8,19.2L767.5,290.8z"/>
</g>
<g style="&st0;">
	<path style="&st2;" d="M474.7,374.8c-5.5-1.3-10.9-2.7-16.4-3.9c-5.5-1.3-11-2.5-16.4-3.7c-11-2.3-21.9-4.6-32.9-6.4
		c-11-1.9-22-3.5-32.9-4.8c-2.7-0.4-5.5-0.6-8.2-0.9c-2.7-0.3-5.5-0.5-8.2-0.8l-4.1-0.4l-4.1-0.3l-4.1-0.3l-4.1-0.2
		c-10.9-0.5-21.7,0.1-32.2,1.2c-1.3,0.1-2.6,0.3-3.9,0.4c-1.3,0.1-2.6,0.3-3.9,0.4c-1.3,0.2-2.6,0.4-3.8,0.5
		c-1.3,0.1-2.6,0.3-3.8,0.4c-1.3,0.2-2.5,0.3-3.8,0.5c-1.3,0.1-2.5,0.4-3.7,0.5c-2.5,0.3-4.9,0.7-7.4,1.1c-4.8,0.9-9.5,1.8-14.1,3.1
		c-4.5,1.4-8.7,3.1-12.7,5.3c-0.5,0.3-1,0.6-1.5,0.8c-0.5,0.3-0.9,0.6-1.4,0.9c-0.9,0.7-1.9,1.3-2.8,2c-0.9,0.7-1.9,1.5-2.7,2.3
		c-0.9,0.8-1.7,1.7-2.5,2.6c-1.7,1.9-3.2,3.9-4.6,6.2c-1.4,2.3-2.8,4.8-4.1,7.4l-2.8-0.3c-1.5-5.9-1.6-12.4-0.1-18.8
		c0.4-1.6,0.9-3.2,1.5-4.8c0.6-1.6,1.4-3.1,2.1-4.6c0.7-1.6,1.7-3,2.6-4.4c0.5-0.7,0.9-1.5,1.4-2.1c0.5-0.7,1.1-1.3,1.6-2
		c4.4-5.3,9.8-9.6,15.5-13.1c5.7-3.3,11.7-5.9,17.8-7.9c12.1-3.8,24.5-5,36.5-4.3c12,0.6,23.6,2.5,35.1,4.2
		c23,3.5,45.2,9.3,66.9,16.4c10.8,3.6,21.5,7.4,32.1,11.6c5.3,2.1,10.5,4.2,15.7,6.5c5.2,2.2,10.4,4.5,15.5,6.9L474.7,374.8z"/>
</g>
<g style="&st0;">
	<path style="&st2;" d="M972.5,604.5c1.1-16.4,0.8-32.6-1.3-48.2c-0.4-3.9-1.3-7.8-1.9-11.6c-0.3-1.9-0.8-3.8-1.2-5.7l-1.3-5.7
		l-1.6-5.6l-0.8-2.8l-0.4-1.4l-0.5-1.4l-1.8-5.5c-0.3-0.9-0.6-1.8-0.9-2.7l-1.1-2.7c-5.5-14.3-12.5-27.8-20.6-40.5
		c-2.1-3.1-4.2-6.2-6.4-9.3l-3.4-4.5c-1.1-1.5-2.2-3-3.4-4.5c-4.7-5.9-9.6-11.6-14.8-17.1c-20.7-21.9-44.8-40.4-70.9-55.8
		C814,364.3,786,351.9,757,342.2c-29.1-9.7-59.2-16.7-89.9-21.5c-30.6-4.7-61.8-7.2-93.2-7.4c-31.4-0.2-62.9,1.7-94.5,6
		c-7.9,1-15.8,2.3-23.7,3.6l-5.9,1c-2,0.3-4,0.7-5.9,1.1c-2,0.4-3.9,0.8-5.9,1.2c-2,0.4-4,0.7-5.9,1.2c-15.8,3.3-31.6,7.2-47.5,11.4
		c13.5-9.4,27.9-17.6,42.9-24.9c7.5-3.7,15.1-7,22.8-10.2l2.9-1.2c1-0.4,1.9-0.7,2.9-1.1l5.8-2.2c3.9-1.5,7.8-2.8,11.8-4.2
		c15.8-5.4,32-9.9,48.4-13.5c16.4-3.6,33-6.3,49.8-8.2c33.5-3.7,67.5-3.9,101.3-0.5c33.8,3.4,67.4,10.3,100,21.1
		c32.5,10.8,64,25.7,92.8,45c28.8,19.2,55.1,43,75.9,71.1c10.4,14.1,19.5,29.1,26.6,45.1c7.1,16,12.3,32.8,15.3,49.9l0.6,3.2
		c0.2,1.1,0.3,2.2,0.4,3.2l0.8,6.4l0.2,1.6l0.1,1.6l0.2,3.2c0.1,2.1,0.3,4.3,0.4,6.4l0,6.4c0,2.1,0,4.3-0.1,6.4
		c-0.2,4.3-0.4,8.5-1,12.7C983.4,573,979.1,589.4,972.5,604.5z"/>
</g>
<g style="&st0;">
	<path style="&st2;" d="M530.2,233.6c-0.2,1.6-0.4,3.2-0.6,4.9c-0.2,1.6-0.4,3.3-0.7,5c-0.5,3.4-1.3,6.7-2.4,10.1
		c-1.1,3.4-2.6,6.7-4.5,9.8c-1.9,3.1-4.2,6-6.7,8.7c-2.5,2.6-5,5.3-7.8,7.7c-2.8,2.4-6,4.1-9.4,5.3c-3.4,1.1-6.9,1.7-10.5,1.9
		c-3.6,0.1-7.1-0.2-10.9-1.3l-0.5-1.5c2.3-3.3,5-5.6,7.5-7.8c2.6-2.1,5.1-4,7.6-5.7c2.5-1.7,5.1-3.1,7.8-4.2c2.7-1.1,5.5-2.3,7.9-4
		c4.7-3.4,9-7.4,12.5-12.4c1.8-2.5,3.3-5.2,4.8-8.1c1.5-2.9,2.8-5.9,4.5-8.9L530.2,233.6z"/>
</g>
<g style="&st0;">
	<path style="&st2;" d="M940.5,527.3c0.2,2.8,0.5,5.6,0.7,8.4l0.1,4.2c0,0.7,0,1.4,0,2.1l-0.1,2.1l-0.2,4.3
		c-0.1,1.4-0.3,2.8-0.4,4.2c-0.2,2.8-0.7,5.6-1.2,8.5c-0.2,1.4-0.6,2.8-0.8,4.2c-0.3,1.4-0.6,2.8-1,4.2c-0.8,2.7-1.5,5.5-2.5,8.2
		c-1.8,5.5-4.1,10.7-6.7,15.9c-2.6,5.1-5.6,10.1-8.8,14.8c-3.3,4.7-6.8,9.3-10.6,13.7c-3.8,4.3-7.7,8.5-11.9,12.4
		c-4.2,3.9-8.5,7.7-13,11.3c-9,7.1-18.5,13.6-28.4,19.3c-9.9,5.6-20,10.8-30.3,15.4c-10.3,4.6-20.8,8.8-31.4,12.7
		c-10.6,3.8-21.3,7.3-32,10.5c-10.8,3.1-21.6,6-32.5,8.6c-10.9,2.7-21.8,5-32.8,7.2c-21.9,4.3-44,7.8-66.1,10.5
		c-22.1,2.7-44.3,4.8-66.5,6.3c-22.2,1.4-44.4,2.3-66.7,2.7c-11.1,0.2-22.3,0.3-33.4,0.4c-11.1,0-22.3,0.1-33.4-0.1
		c-11.1-0.1-22.3-0.3-33.5-0.7c-5.6-0.2-11.2-0.4-16.7-0.6L364,737c-22.3-1.4-44.6-3.6-66.8-6.9c-22.2-3.4-44.2-7.8-66.1-13.3
		c-21.8-5.6-43.5-12-64.9-19.8c-10.7-3.9-21.3-8.1-31.7-12.7c-10.5-4.6-20.8-9.5-31-15c-2.5-1.3-5.1-2.8-7.6-4.2
		c-2.5-1.4-5-2.9-7.5-4.4l-3.7-2.2c-1.2-0.8-2.5-1.6-3.7-2.3c-2.5-1.6-4.9-3.1-7.3-4.8c-2.4-1.7-4.8-3.3-7.1-5.1
		c-2.3-1.7-4.7-3.4-7-5.3l-3.4-2.7l-3.4-2.8c-2.2-1.9-4.4-3.8-6.6-5.8c-8.5-8.1-16.5-16.6-23.3-26.6c-0.9-1.3-1.7-2.5-2.6-4
		c-0.1-0.2,0,0-0.3-0.4c-0.3-0.4-0.7-1.1-0.8-1.4l-0.2-0.6l-0.4-1.3c-0.3-0.9-0.4-1.7-0.6-2.5c-0.7-3.3-1.1-6.6-1-9.9
		c0.2-6.6,2.3-12.8,5.5-17.9c0.9-1.4,2.8-1.9,4.2-0.9c1,0.7,1.6,1.9,1.4,3l0,0.1c-0.7,5.2-0.4,10.1,1.1,14.3c0.7,2.1,1.7,4.1,2.9,6
		c0.3,0.5,0.6,0.9,0.9,1.3l0.4,0.6l0.2,0.3c0-0.1-0.3-0.7-0.5-0.9c-0.2-0.3,0,0,0-0.1c0.8,0.7,1.8,1.5,2.8,2.2
		c8.1,6.1,17.1,11.5,26.2,16.3c18.4,9.6,37.8,16.8,57.8,23c10,3.1,20.1,5.9,30.3,8.5c5.1,1.4,10.2,2.5,15.3,3.8l7.7,1.8
		c2.6,0.6,5.1,1.2,7.7,1.7c20.6,4.6,41.5,8.4,62.4,12c41.9,7,84.1,13.5,126.5,19.8c42.4,6.3,85.2,11.3,128.2,13
		c21.5,0.9,43,1.3,64.5,1.2c21.5-0.1,43-0.7,64.5-1.9c21.5-1.1,42.9-3,64.2-5.5c10.6-1.3,21.3-2.7,31.8-4.4
		c10.6-1.7,21.1-3.6,31.5-5.8c10.5-2.1,20.8-4.6,31.1-7.4c10.3-2.8,20.4-5.9,30.4-9.4c10-3.5,19.8-7.5,29.3-11.9
		c9.5-4.5,18.7-9.5,27.4-15.2c4.4-2.9,8.6-5.9,12.7-9.1c4.1-3.2,8-6.7,11.8-10.2c3.8-3.6,7.3-7.4,10.6-11.4c3.3-4,6.4-8.2,9.2-12.6
		c2.7-4.4,5.3-8.9,7.4-13.7c1.2-2.3,2-4.8,3-7.2c0.5-1.2,0.8-2.5,1.3-3.7c0.4-1.2,0.9-2.5,1.2-3.7c2.8-10.1,4.2-20.7,4.2-31.4l0-0.1
		c0-1.7,1.3-3,3-3C939.1,524.5,940.4,525.7,940.5,527.3z"/>
</g>
<g style="&st0;">
	<path style="&st1;" d="M608.3,659.2c-0.7-8.1-1.8-16.2-3.3-24.4c-0.9-4.1-1.6-8.2-2.7-12.2c-0.5-2-1-4.1-1.5-6.1l-1.7-6.1
		c-4.6-16.2-10.8-32.1-18.4-47.5c-7.5-15.4-16.5-30.2-26.5-44.4l-7.8-10.5c-0.6-0.9-1.3-1.7-2-2.6l-2.1-2.5l-4.2-5.1
		c-1.4-1.7-2.8-3.4-4.2-5.1l-4.4-4.9c-2.9-3.3-6-6.4-9-9.6c-24.6-25.2-53.3-47-84.8-64.5c-15.7-8.7-32.1-16.5-49.1-23.1
		c-16.9-6.6-34.4-12.1-52.3-16.1c18.3,1.7,36.5,4.9,54.4,9.3c18,4.4,35.7,10.1,53,17c34.7,13.8,67.8,32.6,97.7,56.2
		c3.7,3,7.5,5.9,11,9.1l5.4,4.7c1.8,1.6,3.5,3.3,5.3,4.9l5.2,4.9l2.6,2.5c0.9,0.8,1.8,1.6,2.6,2.5l10,10.4
		c13.1,14.2,25.2,29.4,36,45.7c10.8,16.3,20.3,33.6,28.2,51.8l2.9,6.8c0.9,2.3,1.8,4.6,2.7,7c1.9,4.6,3.4,9.4,5.1,14.1
		c3.1,9.5,5.8,19.3,8,29.3l0.1,0.3c3.4,15.4-6.4,30.6-21.8,34s-30.6-6.4-34-21.8C608.6,661.7,608.4,660.3,608.3,659.2z"/>
</g>
<g style="&st0;">
	<path style="&st1;" d="M929.1,640.7c-13.3,13.5-27.5,26.2-42.2,38.2c-14.8,11.9-30.2,23.1-46.1,33.7
		c-15.9,10.6-32.4,20.3-49.2,29.3c-16.8,9.1-34.1,17.4-51.6,25.1c-35.2,15.2-71.6,27.8-108.9,37.4c-37.2,9.6-75.2,16.5-113.5,20.9
		l-14.4,1.5c-4.8,0.6-9.6,1-14.4,1.4l-14.4,1.3l-14.5,1l-7.2,0.5l-7.2,0.3l-14.5,0.7l-14.5,0.3l-7.3,0.1l-7.3,0
		c-4.8-0.1-9.7-0.1-14.5-0.2c-4.8-0.2-9.7-0.4-14.5-0.6c-4.8-0.2-9.7-0.5-14.5-1L351,830l-3.6-0.3l-3.6-0.4
		c-4.8-0.6-9.6-1.1-14.4-1.7c-2.4-0.3-4.8-0.7-7.2-1c-2.4-0.3-4.8-0.7-7.2-1.1l-7.2-1.1c-2.4-0.4-4.8-0.8-7.1-1.3l-7.1-1.4
		c-2.4-0.4-4.8-0.9-7.1-1.4c-37.9-7.9-75-19.1-110.8-33.4c-17.9-7.2-35.4-15.2-52.5-24c-2.1-1.1-4.3-2.2-6.4-3.4
		c-2.1-1.2-4.2-2.3-6.3-3.5c-4.2-2.4-8.4-4.7-12.5-7.2c-8.2-4.9-16.3-10.1-24.2-15.8l2.1-4.6c9.3,2.1,18.6,4.3,27.7,6.4
		c9.2,2.1,18.4,4.2,27.5,6.2c18.3,4,36.5,7.9,54.7,11.4c4.5,0.9,9.1,1.7,13.7,2.6c4.5,0.9,9.1,1.7,13.6,2.5
		c4.5,0.9,9.1,1.5,13.6,2.4c4.5,0.8,9.1,1.5,13.6,2.3l6.8,1.1l6.8,1c4.6,0.7,9.1,1.5,13.6,2.1l13.6,1.9L295,770
		c36.4,4.6,72.6,8.7,109.1,12l6.8,0.7l6.8,0.5l13.7,1l13.7,0.7l6.9,0.4l6.9,0.2l13.8,0.3c4.6,0,9.2,0,13.8-0.1
		c9.2,0,18.4-0.5,27.5-0.9l3.4-0.2l3.4-0.2l6.9-0.5c4.6-0.4,9.2-0.6,13.8-1l13.7-1.4l6.9-0.7l6.8-0.9c18.3-2.1,36.5-5,54.6-8.4
		c18.1-3.3,36.1-7.4,54-12.1c17.9-4.7,35.6-10,53.1-16c35-12,69.1-26.8,101.9-44.4c16.4-8.8,32.4-18.3,48-28.7
		c7.8-5.1,15.5-10.5,23-16c7.5-5.5,14.9-11.3,22.2-17.2L929.1,640.7z"/>
</g>
<g style="&st0;">
	<path style="&st1;" d="M944.8,674c-10.2,14.4-21.3,28.1-33.1,41.3c-5.9,6.6-12,13-18.2,19.3c-3.1,3.1-6.3,6.3-9.5,9.3l-4.8,4.6
		l-4.9,4.5c-13,12.1-26.7,23.4-40.8,34.3c-14.1,10.8-28.7,21.1-43.8,30.7c-30.1,19.1-61.8,36.1-94.7,50.2
		c-32.9,14.3-66.9,25.8-101.6,35.2l-13,3.4l-6.5,1.7l-6.6,1.6c-4.4,1-8.7,2.1-13.1,3.2l-13.2,2.9l-6.6,1.4c-2.2,0.5-4.4,0.9-6.6,1.3
		l-13.3,2.6c-4.4,0.8-8.9,1.5-13.3,2.3l-6.7,1.1c-2.2,0.4-4.5,0.6-6.7,1l-13.4,1.8c-4.5,0.5-9,0.9-13.5,1.4
		c-2.2,0.2-4.5,0.4-6.7,0.6c-2.3,0.2-4.5,0.3-6.8,0.4l-6.8,0.4c-2.3,0.1-4.5,0.3-6.8,0.3c-18,0.7-36.1,0.3-54.1-0.9
		c-18-1.2-35.9-3.3-53.7-6.2c-17.8-2.8-35.4-6.4-52.8-10.9c-17.4-4.5-34.6-9.7-51.4-16c-2.1-0.8-4.2-1.6-6.3-2.4
		c-2.1-0.8-4.2-1.6-6.3-2.5c-4.1-1.7-8.3-3.4-12.4-5.2c-8.2-3.6-16.3-7.5-24.1-11.9l1.4-4.8c8.9,0.7,17.7,1.5,26.4,2.3
		c8.7,0.8,17.4,1.5,26.1,2.1c17.4,1.3,34.6,2.5,51.8,3.4c34.4,1.7,68.5,2.5,102.5,2c34-0.5,67.8-1.5,101.7-3.2
		c2.1-0.1,4.2-0.2,6.4-0.3l6.4-0.4l12.7-0.9l12.7-1.1c2.1-0.2,4.2-0.4,6.4-0.6l6.3-0.8l12.7-1.5c4.2-0.6,8.4-1.2,12.6-1.9l6.3-1
		l6.3-1.2l12.6-2.4c4.2-0.8,8.3-1.8,12.5-2.7l6.2-1.4l3.1-0.7l3.1-0.8c8.3-2.1,16.6-4,24.8-6.4l6.2-1.7c2.1-0.6,4.1-1.1,6.2-1.8
		l12.3-3.7c4.1-1.2,8.1-2.6,12.2-4l6.1-2l6-2.1l6.1-2.1l3-1.1l3-1.1l12-4.5l11.9-4.8c4-1.6,7.9-3.4,11.8-5
		c15.7-6.8,31.2-14.2,46.4-22.2c30.5-15.9,59.6-34.5,87.2-55.4l5.2-3.9l5.1-4c3.4-2.7,6.7-5.4,10.1-8.2c6.6-5.6,13.2-11.2,19.6-17.1
		c6.4-5.8,12.7-11.8,18.8-18c6.1-6.2,12.1-12.5,17.9-19L944.8,674z"/>
</g>
<g style="&st0;">
	<path style="&st1;" d="M968.5,693.6c-7.6,21.5-18,42.2-30.1,61.7c-12.1,19.6-26,38.1-40.9,55.8c-7.5,8.9-15.4,17.3-23.4,25.7
		l-12.3,12.2l-1.5,1.5l-1.6,1.5l-3.2,2.9l-6.4,5.9c-2.2,1.9-4.3,3.9-6.5,5.8l-6.6,5.6l-6.6,5.6c-2.2,1.9-4.4,3.8-6.7,5.5l-13.8,10.6
		l-6.9,5.3l-7.1,5c-4.7,3.4-9.5,6.7-14.2,10.2c-2.3,1.7-4.8,3.3-7.2,5l-7.2,4.9c-4.8,3.3-9.5,6.8-14.5,9.8l-14.8,9.4
		c-1.2,0.8-2.5,1.6-3.7,2.3l-3.8,2.2c-2.6,1.4-5.1,2.9-7.7,4.2c-5.1,2.8-10.3,5.6-15.6,8c-5.3,2.4-10.6,4.8-16,7
		c-5.4,2.2-10.9,4.1-16.4,6c-22.1,7.5-44.8,13.3-67.8,16.8c-11.5,1.7-23.2,2.9-34.9,3.5c-2.9,0.1-5.9,0.2-8.8,0.3
		c-2.9,0-5.9,0-8.8-0.1c-5.9-0.1-11.8-0.5-17.7-1.2l-1-4.9c20.5-11.5,40.7-21.3,60.7-31.3l59.3-29.2c4.9-2.5,9.8-4.8,14.7-7.1
		c4.9-2.4,9.8-4.8,14.7-7c5-2.1,9.9-4.5,14.9-6.7c2.5-1.1,5-2.2,7.5-3.3l3.8-1.6c1.3-0.5,2.5-1.1,3.7-1.7
		c9.9-4.5,20.1-8.7,29.8-13.6l7.4-3.6l3.7-1.8c0.6-0.3,1.2-0.6,1.8-0.9l1.8-1c4.8-2.6,9.5-5.3,14.3-8.1l7.1-4.1l6.9-4.4l13.9-8.8
		c2.4-1.4,4.6-3,6.9-4.5l6.8-4.6l6.8-4.6c2.3-1.6,4.4-3.2,6.6-4.8l6.7-4.8l3.3-2.4l1.7-1.2l1.6-1.3l13-10.2c8.5-6.9,17-14,25.1-21.4
		c2-1.8,4.2-3.6,6.1-5.5l6-5.7c2-1.9,4-3.8,6-5.7l5.8-5.9c1.9-2,3.9-3.9,5.8-6l5.6-6.1c3.8-4.1,7.3-8.3,10.9-12.5
		c1.8-2.1,3.5-4.3,5.3-6.4c1.7-2.2,3.5-4.3,5.2-6.5c3.3-4.4,6.7-8.9,9.9-13.4c6.5-9.1,12.4-18.5,17.9-28.3L968.5,693.6z"/>
</g>
<circle style="&st3;" cx="509.5" cy="357.3" r="11.4"/>
<g style="&st0;">
	<path style="&st2;" d="M988.3,508c-1.6-24.2-5.3-48.1-10.6-71.7c-2.6-11.8-5.6-23.4-9.1-35c-0.8-2.9-1.8-5.7-2.7-8.6l-1.4-4.3
		l-1.4-4.3c-1-2.8-1.9-5.7-2.9-8.5l-3.1-8.5c-8.5-22.5-18.4-44.3-29.8-65.2c-11.5-20.9-24.6-40.9-39-59.7
		c-14.4-18.9-30.2-36.5-47.3-52.9c-17-16.4-35.3-31.4-54.5-44.9c-38.4-27.2-80.7-48.3-125.3-62.6c-11.1-3.7-22.4-6.7-33.7-9.5
		l-8.6-1.9c-1.4-0.3-2.8-0.6-4.3-0.9l-4.3-0.8c-2.9-0.5-5.7-1.1-8.6-1.6l-8.6-1.4c-23.1-3.6-46.3-5.5-69.5-5.9
		c-11.6-0.2-23.1-0.1-34.6,0.4c-5.7,0.2-11.4,0.7-17.1,1.1c-5.7,0.6-11.5,1.2-17.2,1.7c-22.9,2.6-45.6,6.5-68.1,11.8
		c-5.6,1.4-11.3,2.6-16.8,4.3l-8.4,2.3c-2.8,0.8-5.5,1.7-8.3,2.5c-2.8,0.9-5.6,1.6-8.3,2.6l-8.2,2.8l-4.1,1.4l-4.1,1.5
		c-2.7,1-5.5,2-8.2,3c-21.8,8.3-43.1,18.1-64,29l-7.8,4.2c-2.6,1.4-5.2,2.9-7.7,4.3c-2.6,1.5-5.2,2.9-7.7,4.4l-7.7,4.5l-7.6,4.7
		c-2.5,1.6-5,3.2-7.5,4.8c-2.5,1.6-5,3.2-7.5,4.9l-3.7,2.5l-3.7,2.5c-19.8,13.5-38.9,28.2-57.6,44l-3.8-3.3
		c6.6-10.5,13.9-20.6,21.8-30.2c7.8-9.7,16.1-19,24.9-28c8.7-8.9,17.8-17.6,27.3-25.8c4.8-4.1,9.6-8.2,14.5-12
		c4.9-4,9.9-7.8,15-11.5c10.3-7.4,20.7-14.6,31.6-21c5.4-3.4,10.9-6.5,16.5-9.6c2.8-1.6,5.6-3,8.4-4.5c2.8-1.5,5.6-3,8.5-4.4
		c2.9-1.4,5.7-2.8,8.6-4.2l4.3-2l4.4-1.9l8.8-3.8c2.9-1.3,5.9-2.4,8.9-3.6c3-1.2,5.9-2.4,8.9-3.5l9-3.2c6-2.2,12.2-4,18.3-5.9
		c24.6-7.4,49.8-12.6,75.4-15.3c6.4-0.6,12.8-1.1,19.2-1.6c6.5-0.4,13-0.6,19.4-0.7c12.9-0.1,25.7,0.4,38.5,1.5
		c12.7,1.1,25.4,2.6,38,4.6c12.6,1.9,25.1,4.5,37.4,7.3c12.4,2.8,24.6,6.2,36.8,9.7c12.1,3.7,24.2,7.6,36,12.1
		c23.7,8.9,46.9,19.4,69,31.7c22.1,12.4,43.2,26.4,63,42c19.8,15.6,38.4,32.7,55.5,51.1c17.1,18.4,32.7,38.1,46.7,58.8
		c13.9,20.8,26.3,42.5,36.9,65c5.2,11.3,10.2,22.7,14.5,34.3c2.3,5.8,4.3,11.6,6.3,17.5c1.1,2.9,1.9,5.9,2.9,8.8
		c0.9,3,1.9,5.9,2.8,8.9l2.6,8.9c0.9,3,1.6,6,2.4,9l1.2,4.5l1.1,4.5c0.7,3,1.5,6,2.1,9c2.7,12,4.9,24.2,6.8,36.3
		c1.8,12.2,3.2,24.4,4.1,36.7c0.5,6.1,0.8,12.3,1,18.4c0.2,6.1,0.2,12.3,0.2,18.4L988.3,508z"/>
</g>
</svg>
