<?xml version="1.0" encoding="utf-8"?>
<!-- Generator: Adobe Illustrator 21.0.2, SVG Export Plug-In . SVG Version: 6.00 Build 0)  -->
<!DOCTYPE svg PUBLIC "-//W3C//DTD SVG 1.1//EN" "http://www.w3.org/Graphics/SVG/1.1/DTD/svg11.dtd" [
	<!ENTITY st0 "fill:#757A2F;">
	<!ENTITY st1 "fill:#14253F;">
]>
<svg version="1.1" id="Layer_2" xmlns="http://www.w3.org/2000/svg" xmlns:xlink="http://www.w3.org/1999/xlink" x="0px" y="0px"
	 viewBox="0 0 1000 1015.9" style="enable-background:new 0 0 1000 1015.9;" xml:space="preserve">
<g>
	<path style="&st0;" d="M101.6,377.3c7-13.9,14.8-27.4,23.1-40.6c4.2-6.6,8.6-13.1,13-19.5c4.5-6.4,9.1-12.8,13.9-19
		c19-25,40.4-48.3,63.7-69.7c11.7-10.7,23.9-20.9,36.6-30.5c12.7-9.6,25.9-18.5,39.6-26.9l10.3-6.1l10.5-5.8c3.5-2,7.1-3.7,10.6-5.6
		l5.4-2.8c1.8-0.9,3.6-1.7,5.4-2.6c3.6-1.7,7.3-3.4,10.9-5.1l11.1-4.8l2.8-1.2l2.8-1.1l5.6-2.2l5.6-2.2c1.9-0.7,3.7-1.5,5.7-2.1
		l11.4-4c1.9-0.6,3.8-1.4,5.7-2l5.8-1.8c3.9-1.2,7.7-2.5,11.6-3.7l11.7-3.3c2-0.5,3.9-1.1,5.9-1.6l5.9-1.5c3.9-1,7.9-2,11.8-2.9
		c8-1.6,15.9-3.4,24-4.6c4-0.6,8-1.4,12.1-1.8c4-0.5,8.1-1,12.1-1.4c4.1-0.3,8.1-0.6,12.2-0.9c4.1-0.3,8.1-0.4,12.2-0.5
		c8.1-0.3,16.3,0,24.4,0.3c4.1,0.3,8.1,0.5,12.2,0.9l3,0.3l3,0.3l6.1,0.7c32.3,4,63.9,11.9,93.9,23.6c15,5.9,29.5,12.6,43.5,20.4
		c3.5,1.9,7,4,10.4,6c3.4,2.1,6.8,4.2,10.1,6.4c6.7,4.4,13.1,9.1,19.3,14.1l-2.2,4.5c-15.5-3.3-30.5-6.8-45.5-9.6
		c-15-2.9-29.9-5.5-44.8-7.7c-14.9-2.1-29.7-4-44.5-5.3c-14.8-1.3-29.5-2.2-44.2-2.6c-7.3-0.3-14.7-0.3-22-0.4
		c-7.3,0.1-14.6,0-21.9,0.1c-1.8,0-3.7,0.1-5.5,0.1c-1.8,0-3.6,0.1-5.5,0.2c-3.6,0.2-7.3,0.2-11,0.3c-7.3,0.4-14.6,0.5-21.9,1.1
		c-29.3,1.7-58.6,6.1-87.1,14.2c-1.8,0.4-3.5,1.1-5.3,1.6l-5.3,1.7l-5.3,1.7l-2.7,0.8l-2.6,0.9l-10.5,3.7c-3.5,1.3-6.9,2.7-10.4,4
		c-1.7,0.7-3.5,1.3-5.2,2l-5.1,2.2c-3.4,1.5-6.9,2.8-10.3,4.4l-10.2,4.7l-10,5c-26.7,13.4-52.3,29.3-76.4,47.6
		c-12.1,9.1-23.8,18.7-35.1,28.8c-11.3,10.1-22.1,20.8-32.7,31.9c-5.3,5.5-10.4,11.2-15.4,16.9c-5,5.8-10,11.6-14.7,17.6
		c-9.7,11.9-18.8,24.3-27.5,37L101.6,377.3z"/>
</g>
<g>
	<path style="&st0;" d="M243.7,287.8c6.2-6.8,12.8-13.1,19.8-19.2c6.9-6.1,14.3-11.6,21.8-17c15.1-10.6,31.2-19.9,47.9-28.1l6.3-3
		c2.1-1,4.2-2,6.3-2.9l12.8-5.5l13.1-4.9l3.3-1.2l3.3-1.1l6.6-2.2l6.7-2.1c2.2-0.7,4.5-1.3,6.7-1.9c4.5-1.2,9-2.5,13.5-3.7l13.6-3.1
		c4.6-1,9.1-2.1,13.7-2.9c4.6-0.8,9.2-1.7,13.8-2.6l3.4-0.7l3.5-0.6l6.9-1.1l6.9-1.1c2.3-0.4,4.6-0.8,7-1l14-1.7
		c4.7-0.6,9.4-0.8,14.1-1c2.3-0.1,4.7-0.2,7-0.3l3.5-0.1c1.2,0,2.3,0,3.5,0.1c4.7,0.1,9.4,0.3,14.1,0.6c4.7,0.3,9.3,0.9,14,1.5
		c18.6,2.5,37,6.4,54.8,12.3c2.2,0.7,4.4,1.5,6.7,2.3c2.2,0.8,4.4,1.5,6.6,2.4c4.4,1.7,8.7,3.5,13,5.5c2.1,1,4.3,2,6.4,3
		c2.1,1.1,4.2,2.1,6.3,3.3c4.1,2.3,8.2,4.7,12.2,7.4l-1.1,3.8c-18.9,0.6-36.8,0.2-54.6,0.1c-17.8-0.2-35.4-0.3-52.8-0.3
		c-17.4-0.1-34.7-0.3-52.1-1.1l-13.1-0.4c-2.2-0.1-4.4-0.1-6.5-0.1l-6.6,0l-6.6,0.1l-3.3,0c-1.1,0.1-2.2,0.1-3.3,0.2
		c-4.4,0.3-8.7,0.6-13.1,1c-4.4,0.3-8.7,0.9-13,1.4l-13,1.7l-13,2.2c-2.2,0.4-4.3,0.7-6.5,1.1l-6.4,1.3l-6.5,1.3l-3.2,0.7l-3.2,0.8
		l-12.8,3.1l-12.7,3.6c-2.1,0.6-4.2,1.3-6.3,2l-6.3,2c-33.4,11.1-65.8,26.8-94.3,48.7L243.7,287.8z"/>
</g>
<g>
	<path style="&st1;" d="M538.4,372.1c5.1-2.4,10.3-4.7,15.5-6.9c5.2-2.2,10.5-4.3,15.7-6.5c10.6-4.2,21.3-8,32.1-11.6
		c21.7-7.1,43.9-12.9,66.9-16.4c11.5-1.7,23.1-3.6,35.1-4.2c12-0.7,24.3,0.6,36.5,4.3c6.1,2,12.1,4.6,17.8,7.9
		c5.7,3.5,11.1,7.8,15.5,13.1c0.5,0.7,1.1,1.3,1.6,2c0.5,0.7,1,1.4,1.4,2.1c0.9,1.4,1.9,2.8,2.6,4.4c0.7,1.6,1.5,3,2.1,4.6
		c0.6,1.6,1.1,3.2,1.5,4.8c1.5,6.4,1.4,12.9-0.1,18.8l-2.8,0.3c-1.3-2.6-2.7-5.1-4.1-7.4c-1.4-2.3-3-4.4-4.6-6.2
		c-0.8-0.9-1.7-1.8-2.5-2.6c-0.9-0.8-1.8-1.6-2.7-2.3c-0.9-0.8-1.9-1.4-2.8-2c-0.5-0.3-0.9-0.7-1.4-0.9c-0.5-0.3-1-0.6-1.5-0.8
		c-4-2.2-8.2-4-12.7-5.3c-4.5-1.3-9.2-2.3-14-3.1c-2.5-0.3-4.9-0.8-7.4-1.1c-1.3-0.1-2.5-0.4-3.7-0.5c-1.3-0.1-2.5-0.3-3.8-0.5
		c-1.3-0.2-2.5-0.3-3.8-0.4c-1.3-0.1-2.6-0.3-3.8-0.5c-1.3-0.1-2.6-0.3-3.9-0.4c-1.3-0.1-2.6-0.3-3.9-0.4
		c-10.5-1.1-21.3-1.8-32.2-1.2l-4.1,0.2l-4.1,0.3l-4.1,0.3l-4.1,0.4c-2.7,0.2-5.5,0.5-8.2,0.8c-2.7,0.3-5.5,0.6-8.2,0.9
		c-11,1.3-22,2.9-32.9,4.8c-11,1.9-22,4.1-32.9,6.4c-5.5,1.2-11,2.4-16.4,3.7c-5.5,1.2-10.9,2.6-16.4,3.9L538.4,372.1z"/>
</g>
<g>
	<path style="&st1;" d="M41.8,667.2c-6.6-16.9-10.9-34.9-13.1-53.4c-0.5-4.6-1.1-9.2-1.3-13.9l-0.3-7l-0.1-1.8l0-1.8l0-3.5
		c0-2.3,0-4.7,0-7c0.1-2.3,0.2-4.7,0.4-7c0.1-2.3,0.2-4.7,0.4-7.1l0.7-7c2.2-18.7,6.4-37.4,12.6-55.4c6.1-18.1,14.4-35.5,24.1-52
		c19.5-33.1,45.3-62.3,74.8-86.6c14.8-12.2,30.5-23.2,46.9-32.9l12.4-7.1l12.7-6.6c2.1-1.1,4.3-2.1,6.4-3.1l6.5-3
		c1.1-0.5,2.1-1,3.2-1.5l3.3-1.4l6.5-2.8c35.1-14.7,72-24.5,109.3-29.8c37.3-5.3,75.1-6.1,112.3-2.4c37.2,3.6,73.8,11.7,108.6,24.1
		c4.3,1.6,8.7,3.2,13,4.9l6.4,2.6c2.1,0.9,4.3,1.7,6.4,2.7c4.2,1.9,8.4,3.8,12.6,5.7c4.1,2,8.3,4,12.3,6.1
		c16.3,8.4,31.9,18,46.5,28.9c-17.2-5.9-34.3-11.2-51.6-15.6l-12.9-3.2c-4.3-1-8.7-1.9-13-2.9l-13-2.6c-4.3-0.9-8.7-1.5-13-2.3
		c-34.7-5.8-69.5-8.5-104.1-8.3c-34.6,0.3-68.9,3.6-102.5,10c-33.5,6.5-66.3,16.1-97.5,29.1l-5.8,2.5l-2.9,1.2
		c-1,0.4-1.9,0.9-2.9,1.3c-3.8,1.8-7.7,3.5-11.5,5.4l-11.3,5.7c-3.7,2-7.4,4.1-11.1,6c-14.7,8.3-28.8,17.4-42.3,27.4
		c-26.9,20-51.2,43.6-71.2,70.6c-20.1,27-35.8,57.4-45.6,90.3c-4.9,16.5-8.3,33.5-10.2,51C41,631.2,40.7,649.1,41.8,667.2z"/>
</g>
<g>
	<path style="&st1;" d="M485.3,233.1c1.7,3.1,3,6.3,4.4,9.4c1.4,3.1,2.9,6,4.7,8.7c1.7,2.7,3.6,5.2,5.7,7.5c0.5,0.6,1,1.2,1.6,1.7
		c0.6,0.5,1,1.1,1.6,1.6l1.7,1.5l1.8,1.4c2.4,1.9,5.1,3.3,7.9,4.6c2.8,1.3,5.3,2.8,7.9,4.7c2.5,1.9,5.1,3.9,7.7,6.1
		c2.6,2.3,5.3,4.8,7.7,8.2l-0.6,1.5c-4,0.9-7.7,1.1-11.4,0.8c-3.7-0.3-7.4-1.1-10.9-2.4c-3.5-1.3-6.8-3.3-9.6-5.9
		c-2.8-2.6-5.3-5.6-7.8-8.5c-2.5-2.9-4.6-6.1-6.4-9.4c-1.8-3.3-3.2-6.8-4.2-10.3c-1-3.5-1.7-7-2.2-10.5c-0.2-1.7-0.4-3.5-0.6-5.2
		c-0.2-1.7-0.3-3.4-0.5-5.1L485.3,233.1z"/>
</g>
<g>
	<path style="&st1;" d="M72.6,510.4c0,21.9,5.1,43.5,15.6,62.1c2.5,4.7,5.4,9.2,8.5,13.5c3.1,4.3,6.5,8.4,10,12.4
		c3.6,3.9,7.3,7.7,11.3,11.3c4,3.6,8,7,12.3,10.2c8.5,6.4,17.5,12.2,26.9,17.3c4.7,2.6,9.5,5,14.4,7.2l3.7,1.7
		c1.2,0.6,2.5,1.1,3.7,1.6c2.5,1,4.9,2.2,7.5,3.1c20,8.1,40.9,14.4,62.1,19.5l8,1.9l8,1.7l4,0.9l4,0.8l8,1.6
		c5.4,0.9,10.7,2,16.2,2.8c2.7,0.4,5.4,0.9,8.1,1.3l8.1,1.2c21.7,3.1,43.5,5.2,65.4,6.7c21.9,1.6,43.9,2.3,65.8,2.6
		c22,0.3,44,0,65.9-0.9c43.9-1.6,87.7-6.9,130.9-13.5c21.6-3.3,43.2-6.8,64.7-10.4c21.5-3.6,42.9-7.3,64.2-11.3l8-1.5l8-1.6
		c5.3-1,10.6-2.2,15.9-3.3c10.6-2.3,21.1-4.7,31.6-7.3c20.9-5.2,41.6-11,61.7-18l7.5-2.7c2.5-0.9,5-1.9,7.4-2.8c2.5-0.9,4.9-2,7.3-3
		c2.5-1,4.9-2.1,7.3-3.1c2.4-1,4.8-2.2,7.2-3.3c2.4-1.1,4.7-2.3,7.1-3.5c2.4-1.2,4.7-2.5,7-3.7c2.3-1.3,4.6-2.6,6.9-3.9
		c4.6-2.6,9-5.5,13.4-8.5c4.3-3,8.6-6.2,12.4-9.5l1.4-1.2l0.3-0.3c0,0-0.3,0.6-0.5,0.8c-0.2,0.6,0,0.1,0,0.2l0.4-0.6
		c0.3-0.4,0.6-0.9,0.9-1.4c0.3-0.5,0.6-1,0.9-1.5c1.1-2,2-4.2,2.7-6.5c1.4-4.6,1.6-9.7,1-15l0-0.1c-0.2-1.7,1-3.2,2.7-3.4
		c1.2-0.2,2.4,0.5,3,1.5c3.1,5.2,5.1,11.4,5.6,18c0.2,3.3,0.1,6.6-0.5,10c-0.1,0.8-0.3,1.6-0.5,2.5c-0.2,0.8-0.4,1.7-0.6,2.5
		l-0.4,1.3c-0.1,0.2,0.1-0.1-0.3,0.6c-0.2,0.4-0.7,1.1-0.8,1.3l-0.3,0.6c-0.4,0.7-0.8,1.4-1.2,2.1c-3.2,5.4-6.8,10.2-10.5,14.9
		c-0.9,1.2-1.9,2.4-2.9,3.5c-1,1.1-1.9,2.3-3,3.4l-3,3.3l-3.1,3.2c-16.8,17.1-36.6,31.2-56.9,43.1c-10.2,5.9-20.7,11.3-31.3,16.3
		l-8,3.7c-2.7,1.2-5.4,2.3-8,3.5c-5.4,2.3-10.8,4.5-16.2,6.6c-10.8,4.3-21.8,8.1-32.8,11.7c-11,3.5-22.1,6.9-33.3,9.9
		c-22.3,6-44.8,10.8-67.5,14.5c-22.7,3.7-45.5,6.1-68.3,7.8c-5.7,0.4-11.4,0.7-17.1,1c-5.7,0.3-11.4,0.6-17.1,0.8
		c-5.7,0.2-11.4,0.4-17.1,0.5l-8.6,0.2l-8.6,0.1c-22.8,0.4-45.6,0.2-68.4-0.2c-22.8-0.4-45.5-1.4-68.3-3c-22.7-1.7-45.4-4-68-7
		c-45.2-6.3-90.2-15.4-133.9-29.6c-21.8-7.2-43.3-15.6-64-26.1c-2.6-1.3-5.1-2.7-7.7-4c-1.3-0.7-2.6-1.3-3.8-2.1l-3.8-2.2
		c-5.1-2.8-10-5.9-14.9-9.1c-9.8-6.4-19.1-13.6-27.7-21.5c-4.3-4-8.5-8.1-12.5-12.4c-4-4.3-7.7-8.9-11.3-13.5
		c-7-9.4-13.1-19.6-17.8-30.3c-2.4-5.4-4.3-10.9-5.9-16.5l-1.1-4.2l-0.5-2.1l-0.4-2.1l-0.9-4.3c-0.3-1.4-0.4-2.9-0.7-4.3
		c-1.7-11.5-1.8-23.1-0.6-34.5c0.2-1.6,1.7-2.8,3.3-2.7C71.5,507.6,72.6,508.9,72.6,510.4L72.6,510.4z"/>
</g>
<g>
	<path style="&st0;" d="M349.4,650.4c2.2-10,4.9-19.8,8-29.3c1.7-4.7,3.2-9.5,5.1-14.1c0.9-2.3,1.8-4.7,2.7-7l2.9-6.8
		c7.9-18.2,17.4-35.5,28.2-51.8c10.8-16.3,22.9-31.5,36-45.7l10-10.4c0.8-0.9,1.7-1.7,2.6-2.5l2.6-2.5l5.2-4.9
		c1.8-1.6,3.5-3.3,5.3-4.9l5.4-4.7c3.6-3.2,7.4-6.1,11-9.1c29.9-23.6,63-42.4,97.7-56.2c17.4-6.9,35.1-12.6,53-17
		c18-4.4,36.1-7.7,54.4-9.3c-17.9,4-35.3,9.6-52.3,16.1c-16.9,6.6-33.3,14.4-49.1,23.1c-31.5,17.5-60.2,39.3-84.8,64.5
		c-3,3.2-6.1,6.3-9,9.6l-4.4,4.9c-1.4,1.7-2.8,3.4-4.2,5.1l-4.2,5.1l-2.1,2.5c-0.7,0.8-1.4,1.7-2,2.6l-7.8,10.5
		c-10,14.2-19,29-26.5,44.4c-7.6,15.4-13.7,31.3-18.4,47.5l-1.7,6.1c-0.5,2-1,4.1-1.5,6.1c-1.1,4.1-1.8,8.2-2.7,12.2
		c-1.5,8.2-2.6,16.3-3.3,24.4c-1.3,15.7-15.1,27.4-30.9,26.1c-15.7-1.3-27.4-15.1-26.1-30.9c0.1-1.2,0.3-2.4,0.5-3.5L349.4,650.4z"
		/>
</g>
<g>
	<path style="&st0;" d="M88.4,637c7.3,5.9,14.6,11.7,22.2,17.2c7.5,5.5,15.2,10.9,23,16c15.5,10.3,31.6,19.9,48,28.7
		c32.7,17.7,66.9,32.4,101.9,44.4c17.5,6,35.2,11.3,53.1,16c17.9,4.7,35.8,8.8,54,12.1c18.1,3.4,36.3,6.3,54.6,8.4l6.8,0.9l6.9,0.7
		l13.7,1.4c4.6,0.4,9.2,0.7,13.8,1l6.9,0.5l3.4,0.2l3.4,0.2c9.2,0.4,18.4,0.9,27.5,0.9c4.6,0.1,9.2,0.1,13.8,0.1l13.8-0.3l6.9-0.2
		l6.9-0.4l13.7-0.7l13.7-1l6.8-0.5l6.8-0.7c36.5-3.3,72.7-7.4,109.1-12l13.6-1.8l13.6-1.9c4.6-0.6,9.1-1.4,13.6-2.1l6.8-1l6.8-1.1
		c4.5-0.7,9.1-1.5,13.6-2.3c4.5-0.8,9.1-1.5,13.6-2.4c4.5-0.8,9.1-1.6,13.6-2.5c4.5-0.9,9.1-1.7,13.7-2.6
		c18.2-3.5,36.4-7.3,54.7-11.4c9.2-2,18.3-4.1,27.5-6.2c9.2-2.1,18.4-4.3,27.7-6.4l2.1,4.6c-7.8,5.6-15.9,10.8-24.2,15.8
		c-4.1,2.5-8.3,4.9-12.5,7.2c-2.1,1.2-4.2,2.3-6.3,3.5c-2.1,1.1-4.2,2.3-6.4,3.4c-17.1,8.9-34.6,16.9-52.5,24
		c-35.8,14.3-72.9,25.4-110.8,33.4c-2.4,0.5-4.7,1-7.1,1.4l-7.1,1.4c-2.4,0.5-4.8,0.9-7.1,1.3l-7.2,1.1c-2.4,0.4-4.8,0.8-7.2,1.1
		c-2.4,0.3-4.8,0.7-7.2,1c-4.8,0.6-9.6,1.1-14.4,1.7l-3.6,0.4l-3.6,0.3l-7.2,0.6c-4.8,0.4-9.7,0.7-14.5,1c-4.8,0.2-9.7,0.4-14.5,0.6
		c-4.8,0.1-9.7,0.1-14.5,0.2l-7.3,0l-7.3-0.1l-14.5-0.3l-14.5-0.7l-7.2-0.3l-7.2-0.5l-14.5-1l-14.4-1.3c-4.8-0.4-9.6-0.8-14.4-1.4
		l-14.4-1.5c-38.3-4.3-76.3-11.2-113.5-20.9c-37.2-9.7-73.7-22.2-108.9-37.4c-17.6-7.7-34.8-16.1-51.6-25.1
		c-16.8-9.1-33.3-18.8-49.2-29.3c-15.9-10.5-31.3-21.7-46.1-33.7c-14.8-12-29-24.7-42.2-38.2L88.4,637z"/>
</g>
<g>
	<path style="&st0;" d="M73.1,670.9c5.8,6.5,11.8,12.8,17.9,19c6.1,6.2,12.4,12.2,18.8,18c6.4,5.9,13,11.5,19.6,17.1
		c3.4,2.7,6.7,5.5,10.1,8.2l5.1,4l5.2,3.9c27.5,20.9,56.7,39.5,87.2,55.4c15.2,8,30.7,15.4,46.4,22.2c4,1.7,7.8,3.5,11.8,5l11.9,4.8
		l12,4.5l3,1.1l3,1.1l6.1,2.1l6,2.1l6.1,2c4.1,1.3,8.1,2.7,12.2,4l12.3,3.7c2,0.6,4.1,1.2,6.2,1.8l6.2,1.7
		c8.2,2.4,16.5,4.3,24.8,6.4l3.1,0.8l3.1,0.7l6.2,1.4c4.2,0.9,8.3,1.9,12.5,2.7l12.6,2.4l6.3,1.2l6.3,1c4.2,0.7,8.4,1.3,12.6,1.9
		l12.7,1.5l6.3,0.8c2.1,0.2,4.2,0.4,6.4,0.6l12.7,1.1l12.7,0.9l6.4,0.4c2.1,0.1,4.2,0.2,6.4,0.3c33.9,1.8,67.7,2.7,101.7,3.2
		c34,0.5,68.1-0.3,102.5-2c17.2-0.9,34.5-2,51.8-3.4c8.7-0.6,17.4-1.4,26.1-2.1c8.7-0.8,17.5-1.6,26.4-2.3l1.4,4.8
		c-7.9,4.3-15.9,8.2-24.1,11.9c-4.1,1.9-8.2,3.5-12.4,5.2c-2.1,0.9-4.2,1.6-6.3,2.5c-2.1,0.8-4.2,1.6-6.3,2.4
		c-16.8,6.2-34,11.5-51.4,16c-17.4,4.5-35,8.1-52.8,10.9c-17.8,2.8-35.7,4.9-53.7,6.2c-18,1.2-36.1,1.6-54.1,0.9
		c-2.3,0-4.5-0.2-6.8-0.3l-6.8-0.4c-2.3-0.1-4.5-0.3-6.8-0.4c-2.3-0.2-4.5-0.4-6.7-0.6c-4.5-0.4-9-0.9-13.5-1.4l-13.4-1.8
		c-2.2-0.3-4.5-0.6-6.7-1l-6.7-1.1c-4.4-0.8-8.9-1.4-13.3-2.3l-13.3-2.6c-2.2-0.4-4.4-0.8-6.6-1.3l-6.6-1.4l-13.2-2.9
		c-4.4-1.1-8.7-2.2-13.1-3.2l-6.6-1.6l-6.5-1.7l-13-3.4c-34.7-9.4-68.7-21-101.6-35.2c-32.9-14.2-64.6-31.1-94.7-50.2
		c-15-9.6-29.6-19.9-43.8-30.7c-14.1-10.8-27.8-22.2-40.8-34.3l-4.9-4.5L130,744c-3.2-3-6.3-6.2-9.5-9.3
		c-6.2-6.3-12.3-12.7-18.2-19.3c-11.8-13.2-22.9-26.9-33.1-41.3L73.1,670.9z"/>
</g>
<g>
	<path style="&st0;" d="M50.1,691.6c5.5,9.8,11.5,19.2,17.9,28.3c3.1,4.6,6.5,9,9.9,13.4c1.7,2.2,3.5,4.3,5.2,6.5
		c1.7,2.2,3.4,4.3,5.3,6.4c3.6,4.2,7.2,8.5,10.9,12.5l5.6,6.1c1.9,2,3.8,4,5.8,6l5.8,5.9c2,1.9,4,3.8,6,5.7l6,5.7
		c2,1.9,4.1,3.7,6.1,5.5c8.1,7.5,16.6,14.5,25.1,21.4l13,10.2l1.6,1.3l1.7,1.2l3.3,2.4l6.7,4.8c2.2,1.6,4.4,3.3,6.6,4.8l6.8,4.6
		l6.8,4.6c2.3,1.5,4.5,3.1,6.9,4.5l13.9,8.8l6.9,4.4l7.1,4.1c4.8,2.7,9.5,5.4,14.3,8.1l1.8,1c0.6,0.3,1.2,0.6,1.8,0.9l3.7,1.8
		l7.4,3.6c9.8,4.9,19.9,9.1,29.8,13.6c1.2,0.6,2.5,1.2,3.7,1.7l3.8,1.6c2.5,1.1,5,2.1,7.5,3.3c5,2.2,9.9,4.6,14.9,6.7
		c5,2.2,9.9,4.6,14.7,7c4.9,2.3,9.8,4.7,14.7,7.1l59.3,29.2c20,10,40.1,19.8,60.7,31.3l-1,4.9c-5.9,0.7-11.8,1.1-17.7,1.2
		c-2.9,0.1-5.9,0-8.8,0.1c-2.9,0-5.9-0.2-8.8-0.3c-11.7-0.5-23.3-1.7-34.9-3.5c-23.1-3.5-45.7-9.3-67.8-16.8c-5.5-1.9-11-3.9-16.4-6
		c-5.4-2.2-10.7-4.6-16-7c-5.3-2.4-10.5-5.2-15.6-8c-2.6-1.4-5.1-2.8-7.7-4.2l-3.8-2.2c-1.3-0.7-2.5-1.5-3.7-2.3l-14.8-9.4
		c-5-3.1-9.7-6.6-14.5-9.8l-7.2-4.9c-2.4-1.7-4.8-3.2-7.2-5c-4.7-3.4-9.4-6.8-14.2-10.2l-7.1-5l-6.9-5.3l-13.8-10.6
		c-2.3-1.7-4.5-3.7-6.7-5.5l-6.6-5.6l-6.6-5.6c-2.2-1.9-4.3-3.9-6.5-5.8l-6.4-5.9l-3.2-2.9l-1.6-1.5l-1.5-1.5l-12.3-12.2
		c-8-8.4-15.9-16.8-23.4-25.7c-14.9-17.7-28.8-36.2-40.9-55.8c-12.1-19.6-22.5-40.2-30.1-61.7L50.1,691.6z"/>
</g>
<circle style="&st1;" cx="504.4" cy="357.3" r="11.4"/>
<g>
	<path style="&st1;" d="M20.7,507.9c-0.1-6.1,0-12.3,0.2-18.4c0.2-6.1,0.5-12.3,1-18.4c0.9-12.3,2.3-24.5,4.1-36.7
		c1.8-12.2,4.1-24.3,6.8-36.3c0.7-3,1.4-6,2.1-9l1.1-4.5l1.2-4.5c0.8-3,1.5-6,2.4-9l2.6-8.9c0.8-3,1.8-5.9,2.8-8.9
		c1-2.9,1.8-5.9,2.9-8.8c2-5.8,4.1-11.7,6.3-17.5c4.3-11.6,9.4-23,14.5-34.3c10.6-22.5,22.9-44.3,36.9-65
		c14-20.7,29.6-40.4,46.7-58.8c17.1-18.4,35.7-35.4,55.5-51.1c19.8-15.6,40.9-29.6,63-42c22.1-12.4,45.2-22.9,69-31.7
		c11.8-4.5,23.9-8.4,36-12.1c12.2-3.6,24.4-7,36.8-9.7c12.4-2.8,24.9-5.3,37.4-7.3c12.6-2,25.2-3.5,38-4.6c12.7-1,25.6-1.6,38.5-1.5
		c6.4,0.1,13,0.2,19.4,0.7c6.4,0.5,12.8,1,19.2,1.6c25.5,2.8,50.8,7.9,75.4,15.3c6.1,1.9,12.3,3.7,18.3,5.9l9,3.2
		c3,1.1,6,2.3,8.9,3.5c3,1.2,6,2.3,8.9,3.6l8.8,3.8l4.4,1.9l4.3,2c2.9,1.4,5.7,2.8,8.6,4.2c2.9,1.4,5.7,2.9,8.5,4.4
		c2.8,1.5,5.7,2.9,8.4,4.5c5.5,3.1,11.1,6.2,16.5,9.6c10.9,6.5,21.3,13.7,31.6,21c5.1,3.7,10.1,7.5,15,11.5c5,3.9,9.8,7.9,14.5,12
		c9.5,8.2,18.6,16.9,27.3,25.8c8.7,9,17,18.3,24.9,28c7.8,9.7,15.2,19.7,21.8,30.2l-3.8,3.3c-18.6-15.8-37.8-30.5-57.6-44l-3.7-2.5
		l-3.7-2.5c-2.5-1.7-5-3.3-7.5-4.9c-2.5-1.6-5-3.2-7.5-4.8l-7.6-4.7l-7.7-4.5c-2.5-1.5-5.1-3-7.7-4.4c-2.6-1.4-5.1-3-7.7-4.3
		l-7.8-4.2c-20.9-11-42.2-20.8-64-29c-2.7-1-5.5-2-8.2-3l-4.1-1.5l-4.1-1.4l-8.2-2.8c-2.7-0.9-5.5-1.7-8.3-2.6
		c-2.8-0.8-5.5-1.7-8.3-2.5l-8.4-2.3c-5.5-1.6-11.2-2.9-16.8-4.3c-22.5-5.3-45.2-9.2-68.1-11.8c-5.7-0.5-11.5-1.1-17.2-1.7
		c-5.7-0.4-11.3-0.9-17.1-1.1c-11.4-0.5-23-0.7-34.6-0.4c-23.2,0.4-46.5,2.3-69.5,5.9l-8.6,1.4c-2.9,0.5-5.7,1.1-8.6,1.6l-4.3,0.8
		c-1.4,0.3-2.9,0.6-4.3,0.9l-8.6,1.9c-11.3,2.8-22.6,5.8-33.7,9.5c-44.5,14.3-86.9,35.4-125.3,62.6c-19.2,13.5-37.4,28.6-54.5,44.9
		c-17.1,16.3-32.9,34-47.3,52.9c-14.4,18.8-27.5,38.8-39,59.7c-11.4,20.9-21.4,42.8-29.8,65.2l-3.1,8.5c-1,2.8-1.9,5.7-2.9,8.5
		l-1.4,4.3l-1.4,4.3c-0.9,2.9-1.8,5.7-2.7,8.6c-3.4,11.5-6.4,23.2-9.1,35c-5.3,23.5-9,47.5-10.6,71.7L20.7,507.9z"/>
</g>
</svg>
