<svg id="monetization-icon" xmlns="http://www.w3.org/2000/svg" viewBox="0 0 150 150">
  <defs>
    <style>
      .cls-1 {
        fill: #273f29;
      }

      .cls-2 {
        fill: none;
      }
    </style>
  </defs>
  <path id="Path_25" data-name="Path 25" class="cls-1" d="M75,2a73,73,0,1,0,73,73A73.027,73.027,0,0,0,75,2ZM85.293,119.457V133.4H65.8V119.311c-12.483-2.628-23.068-10.658-23.871-24.82H56.239c.73,7.665,5.986,13.651,19.345,13.651,14.308,0,17.52-7.154,17.52-11.607,0-6.059-3.212-11.753-19.491-15.622C55.509,76.533,43.1,69.087,43.1,54.122c0-12.556,10.147-20.732,22.7-23.433V16.6H85.293V30.835C98.871,34.12,105.66,44.413,106.1,55.582H91.79c-.365-8.1-4.672-13.651-16.206-13.651-10.95,0-17.52,4.964-17.52,11.972,0,6.132,4.745,10.147,19.491,13.943s30.514,10.147,30.514,28.543C108,109.748,98,117.048,85.293,119.457Z"/>
  <path id="Path_26" data-name="Path 26" class="cls-2" d="M0,0H150V150H0Z"/>
</svg>
