<svg id="baseline-language-24px" xmlns="http://www.w3.org/2000/svg" viewBox="0 0 150 150">
  <defs>
    <style>
      .cls-1 {
        fill: none;
      }

      .cls-2 {
        fill: #273f29;
      }
    </style>
  </defs>
  <path id="Path_21" data-name="Path 21" class="cls-1" d="M0,0H150V150H0Z"/>
  <path id="Path_22" data-name="Path 22" class="cls-2" d="M74.927,2A73,73,0,1,0,148,75,72.964,72.964,0,0,0,74.927,2Zm50.589,43.8H103.981A114.238,114.238,0,0,0,93.907,19.812,58.616,58.616,0,0,1,125.516,45.8ZM75,16.892A102.833,102.833,0,0,1,88.943,45.8H61.057A102.833,102.833,0,0,1,75,16.892ZM18.5,89.6A60.166,60.166,0,0,1,16.6,75a60.166,60.166,0,0,1,1.9-14.6H43.172A120.562,120.562,0,0,0,42.15,75a120.562,120.562,0,0,0,1.022,14.6Zm5.986,14.6H46.019a114.238,114.238,0,0,0,10.074,25.988A58.3,58.3,0,0,1,24.484,104.2ZM46.019,45.8H24.484A58.3,58.3,0,0,1,56.093,19.812,114.239,114.239,0,0,0,46.019,45.8ZM75,133.108A102.833,102.833,0,0,1,61.057,104.2H88.943A102.833,102.833,0,0,1,75,133.108ZM92.082,89.6H57.918A107.4,107.4,0,0,1,56.75,75a106.471,106.471,0,0,1,1.168-14.6H92.082A106.471,106.471,0,0,1,93.25,75,107.4,107.4,0,0,1,92.082,89.6Zm1.825,40.588A114.238,114.238,0,0,0,103.981,104.2h21.535A58.616,58.616,0,0,1,93.907,130.188ZM106.828,89.6A120.562,120.562,0,0,0,107.85,75a120.562,120.562,0,0,0-1.022-14.6H131.5A60.166,60.166,0,0,1,133.4,75a60.166,60.166,0,0,1-1.9,14.6Z"/>
</svg>
